<?xml version="1.0" standalone="no"?><!DOCTYPE svg PUBLIC "-//W3C//DTD SVG 1.1//EN" "http://www.w3.org/Graphics/SVG/1.1/DTD/svg11.dtd"><svg t="1766275997460" class="icon" viewBox="0 0 1024 1024" version="1.1" xmlns="http://www.w3.org/2000/svg" p-id="2651" xmlns:xlink="http://www.w3.org/1999/xlink" width="256" height="256"><path d="M935.338667 381.994667C925.184 339.2 854.485333 294.186667 810.666667 298.666667c3.328-16-68.48-70.826667-82.517334-79.36C653.653333 173.866667 560.853333 128.853333 469.333333 128c-181.333333-1.706667-260.693333 135.338667-298.666666 172.16-23.168 22.485333-58.496 55.466667-85.333334 83.84h85.333334c-22.656 38.186667-93.994667 121.813333-85.333334 213.333333 36.48-48.853333 61.354667-58.666667 91.306667-72.021333C121.386667 691.498667 197.376 853.333333 298.666667 896c-11.989333-53.333333-13.354667-144 0-170.666667 51.328 86.826667 164.48 148.48 213.333333 170.666667 0-90.666667-9.344-203.178667 42.666667-298.666667 33.706667-61.866667 102.656-128 170.666666-128h170.666667c9.344 12.672 21.333333 21.333333 42.666667 42.666667 0-30.677333 2.816-58.154667 2.005333-85.333333a229.973333 229.973333 0 0 0-5.333333-44.672z m-311.338667-36.309334c-36.48 0-62.677333-23.04-69.333333-47.018666-9.173333-10.154667-35.498667-28.330667-42.666667-42.666667 18.346667 17.322667 154.666667 42.666667 170.666667 42.666667 0 22.656-9.344 47.018667-58.666667 47.018666z" fill="#fe7236" p-id="2652"></path></svg>